<svg xmlns:inkscape="http://www.inkscape.org/namespaces/inkscape" xmlns:sodipodi="http://sodipodi.sourceforge.net/DTD/sodipodi-0.dtd" xmlns="http://www.w3.org/2000/svg" xmlns:svg="http://www.w3.org/2000/svg" zoomAndPan="magnify" preserveAspectRatio="xMidYMid" version="1.0" id="svg266" sodipodi:docname="Planck Temporary Media Kit-6.svg" viewBox="25.84 125.78 334.25 100.55">
  <sodipodi:namedview id="namedview268" pagecolor="#ffffff" bordercolor="#000000" borderopacity="0.25" inkscape:showpageshadow="2" inkscape:pageopacity="0.0" inkscape:pagecheckerboard="0" inkscape:deskcolor="#d1d1d1" showgrid="false"/>
  <defs id="defs190">
    <clipPath id="91054b377d">
      <path d="M 25.839844,125.77734 H 126.38281 V 226.32422 H 25.839844 Z m 0,0" clip-rule="nonzero" id="path184"/>
    </clipPath>
    <clipPath id="4510b4857a">
      <path d="m 76.109375,125.77734 c -27.761719,0 -50.269531,22.50782 -50.269531,50.27344 0,27.76563 22.507812,50.27344 50.269531,50.27344 27.765625,0 50.273435,-22.50781 50.273435,-50.27344 0,-27.76562 -22.50781,-50.27344 -50.273435,-50.27344 z m 0,0" clip-rule="nonzero" id="path187"/>
    </clipPath>
  </defs>
  <g id="g1448">
    <g clip-path="url(#91054b377d)" id="g200">
      <g clip-path="url(#4510b4857a)" id="g198">
        <path fill="#18aba2" d="M 25.839844,125.77734 H 126.38281 V 226.32422 H 25.839844 Z m 0,0" fill-opacity="1" fill-rule="nonzero" id="path196"/>
      </g>
    </g>
    <g fill="#ffffff" fill-opacity="1" id="g208">
      <g transform="translate(59.961223,202.96951)" id="g206">
        <g id="g204">
          <path d="m 31.121094,-5.964844 c -2.605469,0 -3.496094,-2.191406 -2.808594,-6.03125 l 1.644531,-9.664062 c 0.34375,-2.058594 0.617188,-4.046875 0.617188,-5.554688 0,-4.25 -2.742188,-7.058594 -7.0625,-7.058594 -5.621094,0 -10.761719,5.480469 -13.433594,9.9375 l 4.523437,-25.773437 c 0.820313,-4.800781 0.207032,-6.789063 -5.074218,-6.789063 -2.535156,0 -3.5625,0.617188 -3.5625,0.617188 0,0 0.683594,1.578125 -0.070313,5.898438 L -1.714844,-6.785156 C -2.535156,-1.988281 -1.917969,0 3.359375,0 c 2.535156,0 3.5625,-0.617188 3.5625,-0.617188 0,0 -0.683594,-1.578124 0.070313,-5.894531 2.054687,-11.515625 8.636718,-21.730469 12.957031,-21.730469 1.507812,0 2.191406,1.027344 1.644531,4.316407 l -1.304688,7.542969 c -0.546874,3.359374 -1.027343,6.03125 -1.027343,7.8125 0,5.144531 3.152343,8.570312 8.296875,8.570312 6.375,0 11.378906,-6.511719 12.0625,-10.144531 0.207031,-1.234375 -0.410156,-1.78125 -1.300782,-1.78125 -1.988281,3.972656 -4.523437,5.960937 -7.199218,5.960937 z m 0,0" id="path202"/>
        </g>
      </g>
    </g>
    <g fill="#ffffff" fill-opacity="1" id="g216">
      <g transform="translate(56.214091,197.9937)" id="g214">
        <g id="g212">
          <path d="m 28.425781,-39.234375 -1.792969,-5.796875 -30.164062,9.324219 1.789062,5.796875 z m 0,0" id="path210"/>
        </g>
      </g>
    </g>
    <g fill="#18aba2" fill-opacity="1" id="g224">
      <g transform="translate(140.11814,198.98287)" id="g222">
        <g id="g220">
          <path d="m 23.890625,-39.484375 c 3.226563,0 5.976563,0.8125 8.25,2.4375 2.269531,1.625 3.984375,3.914063 5.140625,6.859375 1.15625,2.949219 1.734375,6.40625 1.734375,10.375 v 0.75 c 0,3.804688 -0.589844,7.203125 -1.765625,10.203125 -1.167969,2.992187 -2.882812,5.335937 -5.140625,7.03125 -2.25,1.699219 -4.964844,2.546875 -8.140625,2.546875 -3.804688,0 -6.898438,-1.347656 -9.28125,-4.046875 V 14.90625 H 3.875 v -53.671875 h 10.03125 l 0.390625,3.71875 c 2.4375,-2.957031 5.632813,-4.4375 9.59375,-4.4375 z m 4.34375,19.671875 c 0,-3.34375 -0.574219,-6 -1.71875,-7.96875 -1.148437,-1.96875 -2.949219,-2.953125 -5.40625,-2.953125 -3.085937,0 -5.226563,1.183594 -6.421875,3.546875 v 15.5 c 1.238281,2.46875 3.398438,3.703125 6.484375,3.703125 2.457031,0 4.25,-1.015625 5.375,-3.046875 1.125,-2.03125 1.6875,-4.707031 1.6875,-8.03125 z m 0,0" id="path218"/>
        </g>
      </g>
    </g>
    <g fill="#18aba2" fill-opacity="1" id="g232">
      <g transform="translate(181.42566,198.98287)" id="g230">
        <g id="g228">
          <path d="M 4.40625,0 V -55.03125 H 15.265625 V 0 Z m 0,0" id="path226"/>
        </g>
      </g>
    </g>
    <g fill="#18aba2" fill-opacity="1" id="g240">
      <g transform="translate(201.0942,198.98287)" id="g238">
        <g id="g236">
          <path d="m 35.4375,-9.5625 c 0,2.199219 0.128906,3.980469 0.390625,5.34375 0.257813,1.355469 0.65625,2.558594 1.1875,3.609375 V 0 H 26.15625 c -0.480469,-0.925781 -0.828125,-2.082031 -1.046875,-3.46875 -2.460937,2.792969 -5.695313,4.1875 -9.703125,4.1875 -2.4375,0 -4.664062,-0.5 -6.671875,-1.5 -2,-1.007812 -3.585937,-2.394531 -4.75,-4.15625 C 2.828125,-6.707031 2.25,-8.703125 2.25,-10.921875 c 0,-4.082031 1.515625,-7.226563 4.546875,-9.4375 3.039063,-2.21875 7.507813,-3.328125 13.40625,-3.328125 h 4.40625 v -2.1875 c 0,-1.78125 -0.453125,-3.164062 -1.359375,-4.15625 -0.90625,-1 -2.265625,-1.5 -4.078125,-1.5 -1.648437,0 -2.933594,0.390625 -3.859375,1.171875 -0.917969,0.773437 -1.375,1.875 -1.375,3.3125 H 3.109375 c 0,-2.320313 0.6875,-4.425781 2.0625,-6.3125 1.375,-1.882813 3.320313,-3.375 5.84375,-4.46875 2.519531,-1.101563 5.425781,-1.65625 8.71875,-1.65625 3.0625,0 5.773437,0.515625 8.140625,1.546875 2.363281,1.023438 4.210938,2.5625 5.546875,4.625 1.34375,2.054688 2.015625,4.558594 2.015625,7.515625 z m -17.59375,2.078125 c 1.570312,0 2.957031,-0.335937 4.15625,-1.015625 1.195312,-0.6875 2.066406,-1.519531 2.609375,-2.5 v -6.484375 H 20.5 c -2.511719,0 -4.382812,0.546875 -5.609375,1.640625 -1.230469,1.085938 -1.84375,2.496094 -1.84375,4.234375 0,1.21875 0.429687,2.214844 1.296875,2.984375 0.875,0.761719 2.039062,1.140625 3.5,1.140625 z m 0,0" id="path234"/>
        </g>
      </g>
    </g>
    <g fill="#18aba2" fill-opacity="1" id="g248">
      <g transform="translate(240.35963,198.98287)" id="g246">
        <g id="g244">
          <path d="m 25.265625,-39.484375 c 3.882813,0 6.890625,1.167969 9.015625,3.5 2.125,2.324219 3.1875,6.125 3.1875,11.40625 V 0 h -10.8125 v -24.609375 c 0,-2.289063 -0.492188,-3.882813 -1.46875,-4.78125 -0.980469,-0.894531 -2.496094,-1.34375 -4.546875,-1.34375 -1.417969,0 -2.648437,0.296875 -3.6875,0.890625 -1.03125,0.59375 -1.871094,1.445312 -2.515625,2.546875 V 0 H 3.625 v -38.765625 h 10.140625 l 0.34375,4.484375 c 1.363281,-1.695312 2.988281,-2.988281 4.875,-3.875 1.882813,-0.882812 3.976563,-1.328125 6.28125,-1.328125 z m 0,0" id="path242"/>
        </g>
      </g>
    </g>
    <g fill="#18aba2" fill-opacity="1" id="g256">
      <g transform="translate(281.55968,198.98287)" id="g254">
        <g id="g252">
          <path d="m 36.359375,-13.578125 c 0,2.75 -0.71875,5.214844 -2.15625,7.390625 -1.429687,2.167969 -3.367187,3.859375 -5.8125,5.078125 C 25.941406,0.109375 23.226562,0.71875 20.25,0.71875 c -3.898438,0 -7.195312,-0.847656 -9.890625,-2.546875 C 7.660156,-3.523438 5.632812,-5.851562 4.28125,-8.8125 2.925781,-11.769531 2.25,-15.140625 2.25,-18.921875 v -0.921875 c 0,-3.78125 0.675781,-7.148438 2.03125,-10.109375 1.351562,-2.957031 3.367188,-5.285156 6.046875,-6.984375 2.6875,-1.695312 5.96875,-2.546875 9.84375,-2.546875 3.175781,0 5.988281,0.617187 8.4375,1.84375 2.445313,1.230469 4.347656,3 5.703125,5.3125 1.363281,2.304687 2.046875,5.015625 2.046875,8.140625 H 26.21875 c -0.02344,-1.90625 -0.585938,-3.476562 -1.6875,-4.71875 -1.09375,-1.25 -2.621094,-1.875 -4.578125,-1.875 -2.625,0 -4.429687,0.992188 -5.40625,2.96875 -0.980469,1.96875 -1.46875,4.625 -1.46875,7.96875 v 0.921875 c 0,3.417969 0.484375,6.09375 1.453125,8.03125 0.96875,1.9375 2.800781,2.90625 5.5,2.90625 1.863281,0 3.351562,-0.5 4.46875,-1.5 1.125,-1.007813 1.695312,-2.375 1.71875,-4.09375 z m 0,0" id="path250"/>
        </g>
      </g>
    </g>
    <g fill="#18aba2" fill-opacity="1" id="g264">
      <g transform="translate(319.82198,198.98287)" id="g262">
        <g id="g260">
          <path d="m 18.3125,-15.265625 -3.625,3.625 V 0 H 3.875 v -55.0625 h 10.8125 v 30.125 l 1.796875,-2.328125 9.703125,-11.5 H 39.15625 L 25.265625,-22.671875 40.265625,0 H 27.875 Z m 0,0" id="path258"/>
        </g>
      </g>
    </g>
  </g>
</svg>